<svg xmlns="http://www.w3.org/2000/svg" width="40" height="40" viewBox="0 0 40 40" fill="none">
  <path d="M10 2.505C9.66848 2.505 9.35054 2.63669 9.11612 2.87111C8.8817 3.10553 8.75 3.42348 8.75 3.755V21.25C8.75 22.5761 9.27678 23.8478 10.2145 24.7855C11.1521 25.7232 12.4239 26.25 13.75 26.25H15V32.5C15 33.1563 15.1293 33.8061 15.3804 34.4125C15.6316 35.0188 15.9997 35.5697 16.4637 36.0338C16.9278 36.4978 17.4787 36.8659 18.085 37.1171C18.6914 37.3682 19.3412 37.4975 19.9975 37.4975C20.6538 37.4975 21.3036 37.3682 21.91 37.1171C22.5163 36.8659 23.0672 36.4978 23.5313 36.0338C23.9953 35.5697 24.3634 35.0188 24.6146 34.4125C24.8657 33.8061 24.995 33.1563 24.995 32.5V26.25H26.25C27.5761 26.25 28.8479 25.7232 29.7855 24.7855C30.7232 23.8478 31.25 22.5761 31.25 21.25V3.755C31.25 3.42348 31.1183 3.10553 30.8839 2.87111C30.6495 2.63669 30.3315 2.505 30 2.505H10ZM28.75 17.5H11.25V5.005H18.75V8.76C18.75 9.09152 18.8817 9.40946 19.1161 9.64388C19.3505 9.8783 19.6685 10.01 20 10.01C20.3315 10.01 20.6495 9.8783 20.8839 9.64388C21.1183 9.40946 21.25 9.09152 21.25 8.76V5.005H23.75V11.245C23.75 11.5765 23.8817 11.8945 24.1161 12.1289C24.3505 12.3633 24.6685 12.495 25 12.495C25.3315 12.495 25.6495 12.3633 25.8839 12.1289C26.1183 11.8945 26.25 11.5765 26.25 11.245V5.005H28.75V17.5ZM11.25 21.25V20H28.75V21.25C28.75 21.913 28.4866 22.5489 28.0178 23.0178C27.5489 23.4866 26.913 23.75 26.25 23.75H23.745C23.4135 23.75 23.0955 23.8817 22.8611 24.1161C22.6267 24.3505 22.495 24.6685 22.495 25V32.5C22.495 33.1624 22.2319 33.7976 21.7635 34.266C21.2951 34.7344 20.6599 34.9975 19.9975 34.9975C19.3351 34.9975 18.6999 34.7344 18.2315 34.266C17.7631 33.7976 17.5 33.1624 17.5 32.5V25C17.5 24.6685 17.3683 24.3505 17.1339 24.1161C16.8995 23.8817 16.5815 23.75 16.25 23.75H13.75C13.087 23.75 12.4511 23.4866 11.9822 23.0178C11.5134 22.5489 11.25 21.913 11.25 21.25Z" fill="#2FD887"/>
</svg>